<?xml version="1.0" standalone="no"?>
<!DOCTYPE svg PUBLIC "-//W3C//DTD SVG 20010904//EN"
 "http://www.w3.org/TR/2001/REC-SVG-20010904/DTD/svg10.dtd">
<svg version="1.0" xmlns="http://www.w3.org/2000/svg"
 width="901.000000pt" height="901.000000pt" viewBox="0 0 901.000000 901.000000"
 preserveAspectRatio="xMidYMid meet">
<metadata>
Created by potrace 1.14, written by Peter Selinger 2001-2017
</metadata>
<g transform="translate(0.000000,901.000000) scale(0.100000,-0.100000)"
fill="#000000" stroke="none">
<path d="M4165 9000 c-73 -7 -175 -17 -250 -26 -31 -3 -295 -48 -350 -59 -206
-41 -620 -170 -790 -245 -22 -10 -69 -31 -105 -46 -110 -47 -362 -179 -491
-257 -211 -127 -440 -293 -634 -461 -143 -123 -440 -429 -533 -549 -329 -424
-510 -730 -689 -1167 -58 -141 -168 -478 -188 -575 -3 -11 -16 -69 -29 -130
-14 -60 -27 -123 -30 -140 -3 -16 -12 -70 -20 -120 -17 -96 -32 -218 -44 -355
-15 -173 -7 -735 13 -851 2 -13 6 -49 9 -79 4 -30 11 -80 16 -110 5 -30 12
-71 14 -90 17 -131 102 -471 167 -664 70 -206 237 -587 323 -736 99 -170 131
-222 199 -325 75 -113 241 -335 290 -389 12 -14 51 -59 87 -100 118 -138 371
-380 550 -527 36 -29 75 -63 86 -75 12 -13 24 -21 27 -18 3 3 14 -7 26 -22 11
-15 21 -23 21 -19 0 5 8 1 18 -7 30 -28 313 -212 431 -282 318 -188 745 -362
1086 -441 11 -2 38 -9 60 -14 22 -6 54 -12 70 -15 17 -3 41 -8 55 -11 49 -10
195 -34 300 -49 55 -8 226 -24 320 -31 173 -13 685 -6 750 10 8 2 44 7 80 10
179 18 436 65 630 116 496 131 958 341 1397 635 56 38 94 58 97 51 2 -7 5 -5
5 4 1 22 68 72 83 63 7 -5 8 -3 3 5 -4 8 2 19 16 29 64 45 278 231 393 342
597 578 1015 1296 1227 2105 31 120 84 378 94 464 4 30 8 61 10 70 3 18 12 97
25 226 8 92 6 699 -3 745 -3 14 -8 57 -11 95 -3 39 -13 115 -21 170 -9 55 -18
118 -21 140 -3 22 -9 54 -14 70 -5 17 -11 46 -13 66 -3 20 -7 41 -10 45 -3 5
-8 25 -11 46 -3 20 -17 78 -30 130 -167 633 -468 1219 -887 1726 -164 199
-455 486 -644 637 -27 22 -57 45 -65 52 -57 46 -200 147 -308 217 -539 353
-1178 594 -1805 681 -27 3 -57 8 -66 10 -10 2 -54 7 -97 11 -43 3 -92 9 -109
11 -54 8 -628 10 -710 3z"/>
<path d="M1754 890 c0 -13 4 -16 10 -10 7 7 7 13 0 20 -6 6 -10 3 -10 -10z"/>
<path d="M1786 891 c-4 -5 -2 -12 4 -16 5 -3 10 -3 10 1 0 4 7 -1 16 -12 15
-18 15 -18 4 3 -12 27 -27 36 -34 24z"/>
<path d="M1766 852 c-2 -4 4 -8 14 -8 10 0 16 4 14 8 -3 4 -9 8 -14 8 -5 0
-11 -4 -14 -8z"/>
<path d="M1840 851 c0 -5 7 -12 16 -15 14 -5 15 -4 4 9 -14 17 -20 19 -20 6z"/>
<path d="M1810 828 c0 -6 3 -8 7 -5 3 4 13 1 22 -6 14 -11 14 -10 2 6 -15 20
-31 22 -31 5z"/>
<path d="M7155 810 c3 -5 8 -10 11 -10 2 0 4 5 4 10 0 6 -5 10 -11 10 -5 0 -7
-4 -4 -10z"/>
</g>
</svg>
